<?xml version="1.0" encoding="utf-8"?>
<!-- Generator: Adobe Illustrator 16.0.0, SVG Export Plug-In . SVG Version: 6.00 Build 0)  -->
<!DOCTYPE svg PUBLIC "-//W3C//DTD SVG 1.1//EN" "http://www.w3.org/Graphics/SVG/1.1/DTD/svg11.dtd">
<svg version="1.1" id="Layer_1" xmlns="http://www.w3.org/2000/svg" xmlns:xlink="http://www.w3.org/1999/xlink" x="0px" y="0px"
	 width="792px" height="792px" viewBox="598.5 122.5 792 792" enable-background="new 598.5 122.5 792 792" xml:space="preserve">
<g id="Layer_3">
</g>
<g id="Layer_2">
	<g>
		<path fill="#2A3648" d="M1059.911,734.469c0,0,79.585,54.84,100.069,74.505c20.485,19.665,92.043,85.488,92.043,85.488
			l-10.73-65.413c0,0-58.565-38.102-73.217-52.031c-14.65-13.93-50.419-59.07-50.419-59.07l-20.77,14.004L1059.911,734.469z"/>
		<path fill="#2A3648" d="M738.405,129.7c0,0,6.965,184.362,49.163,282.689c19.541,45.53,63.913,127.825,121.68,190.508
			c37.147,40.308,153.635,133.97,153.635,133.97l45.476-33.186c0,0-119.221-149.948-168.384-253.191
			c-49.164-103.243-68.829-197.882-68.829-197.882L738.405,129.7z"/>
		<path fill="#2A3648" d="M1156.293,661.893c0,0-42.607,21.305-74.974,50.394c-33.275,29.905-65.141,82.348-65.141,82.348
			l46.705,34.415l8.604-9.833l-15.978-17.207c0,0,29.293-51.417,57.152-79.276c16.797-16.797,43.632-27.654,43.632-27.654V661.893z"
			/>
		<path fill="#2A3648" d="M1156.293,678.69c11.525-2.629,29.191-1.259,45.765,11.877c19.572,15.513,26.173,31.524,29.687,44.408
			c11.06,40.559,32.709,164.95,32.709,164.95l-15.159,7.374c0,0-9.369-58.747-16.247-98.761
			c-6.982-40.632-10.537-77.533-33.735-100.248c-14.749-14.441-32.106-15.954-43.019-13.213c-3.93,0.987-14.601,7.034-14.601,7.034
			l-7.83-13.794C1133.863,688.318,1150.344,680.048,1156.293,678.69z"/>
		<path fill="#2A3648" d="M1156.293,784.802l84.278,66.665l6.029,38.003c-17.067-15.719-69.559-64.117-86.62-80.496
			c-12.654-12.147-72.927-55.493-72.927-55.493l14.449-18.505L1156.293,784.802z"/>
		<path fill="#F15A24" d="M745.37,144.449l119.631,111.437c0,0,14.749,68.829,50.392,157.322
			c14.271,35.43,81.286,150.901,81.286,150.901l-3.034,34.281c0,0-104.063-106.111-143.393-184.772
			C810.921,334.957,745.37,144.449,745.37,144.449z"/>
	</g>
</g>
<g id="Layer_1_1_" display="none">
	
		<image display="inline" overflow="visible" opacity="0.2" enable-background="new    " width="2048" height="1536" xlink:href="BA57B1F1.png"  transform="matrix(1.2656 0 0 1.2656 54.7031 -210.0938)">
	</image>
</g>
</svg>
